<svg xmlns="http://www.w3.org/2000/svg" width="281.523" height="79" viewBox="0 0 74.486 20.902"><defs><path id="a" d="M34.018 50.649h98.498v50.553H34.018z"/></defs><g fill="#89b400"><path d="M4.233 0h3.97v3.969h-3.97zM4.233 4.233h3.97v3.97h-3.97zM4.233 8.467h3.97v3.968h-3.97zM4.233 12.7h3.97v3.969h-3.97zM4.233 16.933h3.97v3.97h-3.97zM8.467 8.467h3.968v3.968H8.467zM8.467 16.933h3.968v3.97H8.467zM8.467 0h3.968v3.969H8.467zM12.7 4.233h3.969v3.97H12.7zM12.7 12.7h3.969v3.969H12.7zM12.7 8.467h1.852v1.852H12.7zM12.7 10.583h1.852v1.852H12.7zM12.7 16.933h1.852v1.852H12.7zM12.7 2.117h1.852v1.852H12.7zM12.7 1.058h.794v.794H12.7zM14.817 3.175h.793v.794h-.793zM14.817 8.467h.793v.793h-.793zM14.817 11.642h.793v.793h-.793zM14.817 16.933h.793v.794h-.793zM12.7 19.05h.794v.794H12.7zM0 0h3.969v3.969H0zM0 16.933h3.969v3.97H0z"/></g><g aria-label="Batect" transform="matrix(.59612 0 0 .59612 1.163 -31.001)" style="line-height:1.25;-inkscape-font-specification:'Zilla Slab, Normal';font-variant-ligatures:normal;font-variant-caps:normal;font-variant-numeric:normal;font-variant-east-asian:normal;white-space:pre;shape-inside:url(#a)" font-weight="400" font-size="32.279" font-family="Zilla Slab"><path d="M52.223 74.148q0 2.485-1.775 4.228-1.776 1.711-5.262 1.711h-9.813v-2.066h2.647v-16.85h-2.647v-2.065h9.652q3.195 0 4.745 1.388 1.582 1.388 1.582 3.647 0 1.679-1.001 2.938-1 1.258-2.615 1.581v.13q2.292.354 3.39 1.872 1.097 1.484 1.097 3.486zm-3.39-9.458q0-1.97-1.129-2.744-1.098-.775-3.067-.775h-4.26v7.102h4.164q1.872 0 3.066-.904 1.227-.936 1.227-2.68zm.872 9.329q0-1.776-1.065-2.776-1.033-1.033-3.099-1.033h-5.164v7.811h4.39q2.26 0 3.583-.936 1.355-.968 1.355-3.066zM56.113 66.82q1.13-.742 2.389-1.065 1.259-.323 2.679-.323 5.132 0 5.132 4.81v6.843q0 1.55 1.227 1.55.549 0 .968-.194l.033 1.485q-.872.484-1.873.484-2.55 0-2.614-2.905v-.065q-.678 1.162-1.937 2.066-1.226.904-2.97.904-1.42 0-2.905-.872-1.452-.871-1.452-3.163 0-2.711 2.13-3.55 2.163-.872 4.584-.872.645 0 1.291.032.678.032 1.259.097V70.79q0-1.55-.678-2.518-.646-.968-2.582-.968-1.582 0-2.776.58l-.55 2.486-1.871-.226zm7.94 7.876V73.6q-.612-.032-1.29-.097-.678-.064-1.388-.064-1.614 0-2.938.516-1.29.484-1.29 2.163 0 1.388.87 1.904.872.517 1.808.517 1.485 0 2.776-1.033 1.324-1.033 1.453-2.809zM80.885 76.214q-.581 4.196-4.551 4.196-2.163 0-3.325-1.227-1.13-1.226-1.13-3.325V67.53h-2.324v-1.807h2.324v-4.616h2.26v4.616h5.616v1.807H74.14v8.038q0 1.291.548 2.098.581.775 1.873.775.839 0 1.549-.517.742-.516 1.065-2.26zM95.09 75.955q-.29 1.84-1.84 3.164-1.548 1.29-4.195 1.29-3.035 0-4.907-1.904-1.872-1.904-1.872-5.39 0-3.357 1.775-5.52 1.776-2.163 4.81-2.163 2.97 0 4.519 1.873 1.55 1.872 1.582 4.422 0 .839-.194 1.71H84.665q.193 5.036 4.551 5.036 1.71 0 2.68-.807.968-.807 1.29-2.13zm-2.517-4.196q.161-1.614-.775-3.034-.903-1.42-3.002-1.42-2 0-2.937 1.323-.936 1.323-1.162 3.131zM110.059 75.245q-.29 1.872-1.711 3.519-1.388 1.646-4.358 1.646-2.97 0-4.745-1.905-1.775-1.936-1.775-5.39 0-2.97 1.678-5.326 1.679-2.357 5.036-2.357 1.42 0 2.615.323 1.194.323 2.291 1.162l.55 3.454-1.873.226-.549-2.421q-1.29-.807-3.066-.807-2.292 0-3.293 1.646-1 1.647-1 3.97 0 2.583 1.13 4.036 1.13 1.452 3.26 1.452 3.227 0 3.873-3.647zM123 76.214q-.582 4.196-4.552 4.196-2.163 0-3.325-1.227-1.13-1.226-1.13-3.325V67.53h-2.324v-1.807h2.324v-4.616h2.26v4.616h5.616v1.807h-5.616v8.038q0 1.291.549 2.098.58.775 1.872.775.84 0 1.55-.517.742-.516 1.064-2.26z" style="-inkscape-font-specification:'Zilla Slab, Normal';font-variant-ligatures:normal;font-variant-caps:normal;font-variant-numeric:normal;font-variant-east-asian:normal"/></g></svg>